<svg xmlns="http://www.w3.org/2000/svg" xmlns:xlink="http://www.w3.org/1999/xlink" xmlns:inkscape="http://www.inkscape.org/namespaces/inkscape" version="1.1" width="156" height="85" viewBox="0 0 156 85">
<defs>
<path id="font_1_1" d="M.2939911 .64004519C.2939911 .66400149 .2939911 .6660156 .2709961 .6660156 .20899964 .60227969 .12098694 .60227969 .08898926 .60227969V.57128909C.10899353 .57128909 .16799927 .57128909 .21998596 .5972748V.07902527C.21998596 .042999269 .21699524 .0309906 .1269989 .0309906H.09498596V0C.12998963 .0029907227 .21699524 .0029907227 .25698854 .0029907227 .29699708 .0029907227 .38398744 .0029907227 .4189911 0V.0309906H.3869934C.29699708 .0309906 .2939911 .041992189 .2939911 .07902527V.64004519Z"/>
<path id="font_1_3" d="M.13198853 .327713V.35173036C.13198853 .6047821 .2559967 .64100649 .30699159 .64100649 .33099366 .64100649 .37298585 .634964 .394989 .6007538 .37998963 .6007538 .33999635 .6007538 .33999635 .5557556 .33999635 .524765 .3639984 .5097656 .38598634 .5097656 .4019928 .5097656 .43199159 .51875308 .43199159 .5577545 .43199159 .6178589 .3880005 .6660156 .30499269 .6660156 .1769867 .6660156 .041992189 .5367584 .041992189 .31570436 .041992189 .048553468 .1579895-.022460938 .25099183-.022460938 .3619995-.022460938 .45700074 .07156372 .45700074 .2036438 .45700074 .33070375 .36799623 .4267578 .25698854 .4267578 .18899536 .4267578 .1519928 .37573243 .13198853 .327713M.25099183 .0055389406C.18798828 .0055389406 .1579895 .06556702 .1519928 .080566409 .13398743 .127594 .13398743 .2076416 .13398743 .22564698 .13398743 .30369569 .1659851 .40374757 .2559967 .40374757 .27198792 .40374757 .31799317 .40374757 .34899903 .34172059 .36698915 .30470277 .36698915 .2536621 .36698915 .20463562 .36698915 .15661621 .36698915 .10658264 .34999085 .0705719 .31999208 .010528564 .27398683 .0055389406 .25099183 .0055389406Z"/>
<path id="font_1_4" d="M.36698915 .31781007V.28579713C.36698915 .05178833 .2630005 .0055389406 .20498657 .0055389406 .18798828 .0055389406 .13398743 .007537842 .10699463 .041778566 .15098572 .041778566 .15899658 .07078552 .15899658 .08778381 .15899658 .118774417 .1349945 .13378906 .11299133 .13378906 .09700012 .13378906 .066986087 .12478638 .066986087 .08578491 .066986087 .018615723 .12098694-.022460938 .20599365-.022460938 .33499146-.022460938 .45700074 .11378479 .45700074 .32881166 .45700074 .5979767 .34199525 .6660156 .25299073 .6660156 .19799805 .6660156 .14898682 .64801028 .10598755 .60298159 .06498718 .5579529 .041992189 .5159302 .041992189 .44088746 .041992189 .31581117 .12998963 .21777344 .24198914 .21777344 .30299378 .21777344 .34399415 .25978089 .36698915 .31781007M.24299622 .24076844C.22698975 .24076844 .18099976 .24076844 .1499939 .3038025 .13198853 .3408203 .13198853 .39085389 .13198853 .43988038 .13198853 .49391175 .13198853 .54093936 .15299988 .5779724 .17999268 .6279907 .21798706 .64100649 .25299073 .64100649 .29899598 .64100649 .33198548 .60697939 .34899903 .5619507 .36099244 .52993777 .36499024 .4669037 .36499024 .42086793 .36499024 .3378296 .33099366 .24076844 .24299622 .24076844Z"/>
<path id="font_2_118" d="M.5079956 .3996582V.43066407C.4850006 .4286499 .45599366 .42765809 .43299867 .42765809L.34599305 .43066407V.3996582C.3769989 .39866639 .3929901 .3816681 .3929901 .35668946 .3929901 .34669496 .3919983 .34469605 .3869934 .33270265L.28599549 .08685303 .1749878 .35568238C.17098999 .36567689 .16899109 .36967469 .16899109 .3736725 .16899109 .3996582 .20599365 .3996582 .22499085 .3996582V.43066407L.115997318 .42765809C.08898926 .42765809 .04899597 .4286499 .018997193 .43066407V.3996582C.066986087 .3996582 .085998538 .3996582 .099990848 .36468507L.25-.000091552738 .22499085-.059066774C.20298767-.11407471 .1749878-.18309021 .11099243-.18309021 .10598755-.18309021 .08299255-.18309021 .06399536-.16503906 .09498596-.16104126 .102996829-.13905335 .102996829-.123046878 .102996829-.0970459 .083999637-.08103943 .06098938-.08103943 .040985109-.08103943 .018997193-.09403992 .018997193-.124053958 .018997193-.16905213 .06098938-.20507813 .11099243-.20507813 .17399597-.20507813 .21499634-.14804077 .23899842-.091049198L.4149933 .33569337C.44099427 .39865113 .49198915 .3996582 .5079956 .3996582Z"/>
<path id="font_2_47" d="M.5269928 0V.0309906C.45700074 .0309906 .44898988 .038009645 .44898988 .0871582V.69433596L.30499269 .6826172V.6516113C.375 .6516113 .3829956 .64463809 .3829956 .59580996V.38035584C.35398866 .41636659 .31098939 .4423828 .25698854 .4423828 .13899231 .4423828 .033996583 .3443451 .033996583 .21531677 .033996583 .088272098 .13198853-.0107421879 .24598694-.0107421879 .30999757-.0107421879 .35499574 .023254395 .37998963 .055267335V-.0107421879L.5269928 0M.37998963 .117996219C.37998963 .099990848 .37998963 .09799194 .36898805 .08099365 .33898927 .033218385 .2939911 .011245728 .25099183 .011245728 .20599365 .011245728 .16999817 .037216188 .1459961 .075164798 .11999512 .1161499 .116989139 .17320252 .116989139 .21421814 .116989139 .25125123 .11898804 .31129457 .147995 .35632325 .16899109 .38734437 .20698548 .42037965 .26098634 .42037965 .29599 .42037965 .33799745 .405365 .36898805 .3603363 .37998963 .34332276 .37998963 .34132386 .37998963 .32330323V.117996219Z"/>
<path id="font_1_2" d="M.2899933 .35191346C.37199403 .37893678 .42999269 .4490509 .42999269 .52809146 .42999269 .6100464 .34199525 .6660156 .24598694 .6660156 .14498902 .6660156 .068984989 .60606387 .068984989 .53009036 .068984989 .49710084 .09098816 .47808839 .11999512 .47808839 .15098572 .47808839 .17098999 .50009158 .17098999 .5290985 .17098999 .57910159 .12399292 .57910159 .10899353 .57910159 .13999939 .62802127 .20599365 .64100649 .24198914 .64100649 .2829895 .64100649 .33799745 .6190338 .33799745 .5290985 .33799745 .51708987 .33599855 .45906068 .30999757 .4149933 .27999879 .36691285 .24598694 .36390687 .22099304 .36291505 .21299744 .36190797 .18899536 .35990907 .18199158 .35990907 .17399597 .35890199 .16699219 .35791017 .16699219 .3479004 .16699219 .33691407 .17399597 .33691407 .19099427 .33691407H.23498535C.31698609 .33691407 .35398866 .2686615 .35398866 .17037964 .35398866 .034469606 .2849884 .0055389406 .24099732 .0055389406 .19799805 .0055389406 .12298584 .022491456 .08799744 .08137512 .12298584 .07637024 .1539917 .09837341 .1539917 .1363678 .1539917 .17237854 .1269989 .19238281 .09799194 .19238281 .07398987 .19238281 .041992189 .17837525 .041992189 .1343689 .041992189 .043441774 .1349945-.022460938 .24398804-.022460938 .3659973-.022460938 .45700074 .06838989 .45700074 .17037964 .45700074 .252594 .3939972 .33088685 .2899933 .35191346Z"/>
</defs>
<path transform="matrix(1.00008,0,0,-1,39.48176,1.9980002)" stroke-width=".79701" stroke-linecap="butt" stroke-miterlimit="10" stroke-linejoin="miter" fill="none" stroke="#000000" d="M0 0 113.38724-56.69362H85.04042L0 0"/>
<path transform="matrix(1.00008,0,0,-1,39.48176,1.9980002)" stroke-width=".79701" stroke-linecap="butt" stroke-dasharray=".79701,1.99255" stroke-miterlimit="10" stroke-linejoin="miter" fill="none" stroke="#000000" d="M0 0V-56.69362H85.04042"/>
<path transform="matrix(1.00008,0,0,-1,39.48176,1.9980002)" stroke-width=".3985" stroke-linecap="butt" stroke-miterlimit="10" stroke-linejoin="miter" fill="none" stroke="#000000" d="M99.21382-70.867"/>
<use data-text="1" xlink:href="#font_1_1" transform="matrix(9.963397,0,0,-9.9626,126.66173,69.289)"/>
<use data-text="6" xlink:href="#font_1_3" transform="matrix(9.963397,0,0,-9.9626,131.64342,69.289)"/>
<path transform="matrix(1.00008,0,0,-1,65.98387,90.03)" stroke-width=".3985" stroke-linecap="butt" stroke-miterlimit="10" stroke-linejoin="miter" fill="none" stroke="#000000" d="M60.673 16.492H70.636"/>
<use data-text="9" xlink:href="#font_1_4" transform="matrix(9.963397,0,0,-9.9626,129.15293,82.862)"/>
<use data-text="y" xlink:href="#font_2_118" transform="matrix(9.963397,0,0,-9.9626,141.13889,76.028)"/>
<use data-text="d" xlink:href="#font_2_47" transform="matrix(9.963397,0,0,-9.9626,146.39957,76.028)"/>
<path transform="matrix(1.00008,0,0,-1,39.48176,1.9980002)" stroke-width=".3985" stroke-linecap="butt" stroke-miterlimit="10" stroke-linejoin="miter" fill="none" stroke="#000000" d="M-28.3468-28.3468"/>
<use data-text="3" xlink:href="#font_1_2" transform="matrix(9.963397,0,0,-9.9626,1.5827255,32.781003)"/>
<use data-text="y" xlink:href="#font_2_118" transform="matrix(9.963397,0,0,-9.9626,9.882393,32.781003)"/>
<use data-text="d" xlink:href="#font_2_47" transform="matrix(9.963397,0,0,-9.9626,15.143066,32.781003)"/>
</svg>
