<svg xmlns="http://www.w3.org/2000/svg" xmlns:xlink="http://www.w3.org/1999/xlink" xmlns:inkscape="http://www.inkscape.org/namespaces/inkscape" version="1.1" width="60" height="61" viewBox="0 0 60 61">
<path transform="matrix(1.00009,0,0,-1.00003,30.009232,30.346432)" d="M28.3468 0C28.3468 15.6557 15.6557 28.3468 0 28.3468V0H28.3468" fill="#ffcccc"/>
<path transform="matrix(1.00009,0,0,-1.00003,30.009232,30.346432)" stroke-width=".79701" stroke-linecap="butt" stroke-miterlimit="10" stroke-linejoin="miter" fill="none" stroke="#ff0000" d="M28.3468 0C28.3468 15.6557 15.6557 28.3468 0 28.3468V0H28.3468"/>
<path transform="matrix(1.00009,0,0,-1.00003,30.009232,30.346432)" d="M0 28.3468C-15.6557 28.3468-28.3468 15.6557-28.3468 0H0V28.3468" fill="#ffcccc"/>
<path transform="matrix(1.00009,0,0,-1.00003,30.009232,30.346432)" stroke-width=".79701" stroke-linecap="butt" stroke-miterlimit="10" stroke-linejoin="miter" fill="none" stroke="#ff0000" d="M0 28.3468C-15.6557 28.3468-28.3468 15.6557-28.3468 0H0V28.3468"/>
<path transform="matrix(1.00009,0,0,-1.00003,30.009232,30.346432)" d="M-28.3468 0C-28.3468-15.6557-15.6557-28.3468 0-28.3468V0H-28.3468" fill="#ffcccc"/>
<path transform="matrix(1.00009,0,0,-1.00003,30.009232,30.346432)" stroke-width=".79701" stroke-linecap="butt" stroke-miterlimit="10" stroke-linejoin="miter" fill="none" stroke="#ff0000" d="M-28.3468 0C-28.3468-15.6557-15.6557-28.3468 0-28.3468V0H-28.3468"/>
<path transform="matrix(1.00009,0,0,-1.00003,30.009232,30.346432)" stroke-width=".79701" stroke-linecap="butt" stroke-miterlimit="10" stroke-linejoin="miter" fill="none" stroke="#ff0000" d="M0-28.3468C15.6557-28.3468 28.3468-15.6557 28.3468 0H0V-28.3468"/>
</svg>
