<svg xmlns="http://www.w3.org/2000/svg" xmlns:xlink="http://www.w3.org/1999/xlink" xmlns:inkscape="http://www.inkscape.org/namespaces/inkscape" version="1.1" width="248" height="251" viewBox="0 0 248 251">
<defs>
<path id="font_1_1" d="M.2939911 .64004519C.2939911 .66400149 .2939911 .6660156 .2709961 .6660156 .20899964 .60227969 .12098694 .60227969 .08898926 .60227969V.57128909C.10899353 .57128909 .16799927 .57128909 .21998596 .5972748V.07902527C.21998596 .042999269 .21699524 .0309906 .1269989 .0309906H.09498596V0C.12998963 .0029907227 .21699524 .0029907227 .25698854 .0029907227 .29699708 .0029907227 .38398744 .0029907227 .4189911 0V.0309906H.3869934C.29699708 .0309906 .2939911 .041992189 .2939911 .07902527V.64004519Z"/>
<path id="font_1_2" d="M.1269989 .07699585 .23298645 .18003845C.3889923 .31811524 .44898988 .3721466 .44898988 .47216798 .44898988 .5860901 .35899354 .6660156 .23699951 .6660156 .12399292 .6660156 .049987794 .57411196 .049987794 .48516847 .049987794 .4291687 .099990848 .4291687 .102996829 .4291687 .11999512 .4291687 .15499878 .44117738 .15499878 .48217774 .15499878 .5081787 .13699341 .5341797 .101989749 .5341797 .09399414 .5341797 .09199524 .5341797 .08898926 .5331726 .11199951 .59806826 .1659851 .63500979 .22399903 .63500979 .31498719 .63500979 .35798646 .5541382 .35798646 .47216798 .35798646 .39215089 .30799867 .31311036 .25299073 .25108338L.06098938 .036987306C.049987794 .025985718 .049987794 .023986817 .049987794 0H.42099L.44898988 .17404175H.42399598C.4189911 .14402771 .4119873 .1000061 .4019928 .084991458 .394989 .07699585 .32899476 .07699585 .30699159 .07699585H.1269989Z"/>
<path id="font_2_55" d="M.35699464 .63479617C.35699464 .6717987 .31999208 .7050781 .2669983 .7050781 .19699097 .7050781 .11199951 .65179446 .11199951 .5457611V.43066407H.032989503V.3996582H.11199951V.07595825C.11199951 .0309906 .100997928 .0309906 .033996583 .0309906V0L.147995 .0029907227C.18798828 .0029907227 .23498535 .0029907227 .2749939 0V.0309906H.2539978C.17999268 .0309906 .17799378 .04197693 .17799378 .07795715V.3996582H.2919922V.43066407H.1749878V.5467529C.1749878 .63479617 .22299195 .68307498 .2669983 .68307498 .269989 .68307498 .2849884 .68307498 .2999878 .675827 .28799439 .6717987 .269989 .6587982 .269989 .6338043 .269989 .61079409 .28599549 .5907898 .31298829 .5907898 .34199525 .5907898 .35699464 .61079409 .35699464 .63479617Z"/>
<path id="font_2_105" d="M.33198548 .12385559V.18066406H.30699159V.12585449C.30699159 .052108766 .2769928 .014251709 .23999024 .014251709 .17298889 .014251709 .17298889 .10491943 .17298889 .12187195V.3996582H.31599427V.43066407H.17298889V.6142578H.147995C.14698792 .5324249 .116989139 .42565919 .018997193 .42166139V.3996582H.10398865V.12408447C.10398865 .0012512207 .19699097-.0107421879 .23298645-.0107421879 .3039856-.0107421879 .33198548 .060180665 .33198548 .12408447V.12385559Z"/>
<path id="font_1_4" d="M.16299439 .4569702C.116989139 .486969 .11299133 .52098086 .11299133 .5379791 .11299133 .598999 .17799378 .64100649 .24899292 .64100649 .32199098 .64100649 .38598634 .58898928 .38598634 .51698306 .38598634 .45996095 .34700013 .4119568 .2869873 .37695313L.16299439 .4569702M.30899049 .36193849C.3809967 .3989563 .42999269 .45095826 .42999269 .51698306 .42999269 .6090088 .34098817 .6660156 .25 .6660156 .1499939 .6660156 .068984989 .59199526 .068984989 .49897767 .068984989 .4809723 .070999149 .43595887 .11299133 .38894654 .12399292 .37695313 .16099549 .35194398 .18598938 .33494569 .12799073 .30592347 .041992189 .24984741 .041992189 .15072632 .041992189 .04458618 .14399719-.022460938 .24899292-.022460938 .3619995-.022460938 .45700074 .06060791 .45700074 .16773987 .45700074 .20379639 .44599916 .24885559 .4079895 .2909088 .3889923 .31193543 .37298585 .3219452 .30899049 .36193849M.20899964 .3199463 .33198548 .24183655C.3600006 .2228241 .40699769 .19277954 .40699769 .13169861 .40699769 .05760193 .33198548 .0055389406 .25 .0055389406 .1639862 .0055389406 .09199524 .067611698 .09199524 .15072632 .09199524 .20880127 .12399292 .27288819 .20899964 .3199463Z"/>
<path id="font_1_3" d="M.2899933 .35191346C.37199403 .37893678 .42999269 .4490509 .42999269 .52809146 .42999269 .6100464 .34199525 .6660156 .24598694 .6660156 .14498902 .6660156 .068984989 .60606387 .068984989 .53009036 .068984989 .49710084 .09098816 .47808839 .11999512 .47808839 .15098572 .47808839 .17098999 .50009158 .17098999 .5290985 .17098999 .57910159 .12399292 .57910159 .10899353 .57910159 .13999939 .62802127 .20599365 .64100649 .24198914 .64100649 .2829895 .64100649 .33799745 .6190338 .33799745 .5290985 .33799745 .51708987 .33599855 .45906068 .30999757 .4149933 .27999879 .36691285 .24598694 .36390687 .22099304 .36291505 .21299744 .36190797 .18899536 .35990907 .18199158 .35990907 .17399597 .35890199 .16699219 .35791017 .16699219 .3479004 .16699219 .33691407 .17399597 .33691407 .19099427 .33691407H.23498535C.31698609 .33691407 .35398866 .2686615 .35398866 .17037964 .35398866 .034469606 .2849884 .0055389406 .24099732 .0055389406 .19799805 .0055389406 .12298584 .022491456 .08799744 .08137512 .12298584 .07637024 .1539917 .09837341 .1539917 .1363678 .1539917 .17237854 .1269989 .19238281 .09799194 .19238281 .07398987 .19238281 .041992189 .17837525 .041992189 .1343689 .041992189 .043441774 .1349945-.022460938 .24398804-.022460938 .3659973-.022460938 .45700074 .06838989 .45700074 .17037964 .45700074 .252594 .3939972 .33088685 .2899933 .35191346Z"/>
</defs>
<path transform="matrix(1,0,0,-1.00002,1.6599999,228.77326)" stroke-width=".79701" stroke-linecap="butt" stroke-miterlimit="10" stroke-linejoin="miter" fill="none" stroke="#ff0000" d="M0 0H226.77448V170.08086H0V0"/>
<path transform="matrix(1,0,0,-1.00002,1.6599999,228.77326)" stroke-width=".79701" stroke-linecap="butt" stroke-miterlimit="10" stroke-linejoin="miter" fill="none" stroke="#ff0000" d="M0 170.08086 113.38724 226.77448 226.77448 170.08086"/>
<path transform="matrix(1,0,0,-1.00002,1.6599999,228.77326)" stroke-width=".79701" stroke-linecap="butt" stroke-miterlimit="10" stroke-linejoin="miter" fill="none" stroke="#ff0000" d="M113.38724 85.04042H198.42766V141.73404H113.38724V85.04042"/>
<path transform="matrix(1,0,0,-1.00002,1.6599999,228.77326)" stroke-width=".79701" stroke-linecap="butt" stroke-dasharray=".79701,1.99255" stroke-miterlimit="10" stroke-linejoin="miter" fill="none" stroke="#ff0000" d="M113.38724 226.77448V170.08086"/>
<path transform="matrix(1,0,0,-1.00002,1.6599999,228.77326)" stroke-width=".3985" stroke-linecap="butt" stroke-miterlimit="10" stroke-linejoin="miter" fill="none" stroke="#000000" d="M113.38724-17.00824"/>
<use data-text="1" xlink:href="#font_1_1" transform="matrix(9.9626,0,0,-9.962799,104.94501,249.23867)"/>
<use data-text="2" xlink:href="#font_1_2" transform="matrix(9.9626,0,0,-9.962799,109.9263,249.23867)"/>
<use data-text="f" xlink:href="#font_2_55" transform="matrix(9.9626,0,0,-9.962799,118.225009,249.23867)"/>
<use data-text="t" xlink:href="#font_2_105" transform="matrix(9.9626,0,0,-9.962799,121.27356,249.23867)"/>
<path transform="matrix(1,0,0,-1.00002,1.6599999,228.77326)" stroke-width=".3985" stroke-linecap="butt" stroke-miterlimit="10" stroke-linejoin="miter" fill="none" stroke="#000000" d="M238.11302 85.04042"/>
<use data-text="8" xlink:href="#font_1_4" transform="matrix(9.9626,0,0,-9.962799,232.16101,147.18863)"/>
<use data-text="f" xlink:href="#font_2_55" transform="matrix(9.9626,0,0,-9.962799,240.46,147.18863)"/>
<use data-text="t" xlink:href="#font_2_105" transform="matrix(9.9626,0,0,-9.962799,243.50856,147.18863)"/>
<path transform="matrix(1,0,0,-1.00002,1.6599999,228.77326)" stroke-width=".3985" stroke-linecap="butt" stroke-miterlimit="10" stroke-linejoin="miter" fill="none" stroke="#000000" d="M130.39548 198.42766"/>
<use data-text="3" xlink:href="#font_1_3" transform="matrix(9.9626,0,0,-9.962799,120.757999,33.50534)"/>
<use data-text="1" xlink:href="#font_1_1" transform="matrix(9.9626,0,0,-9.962799,126.935,26.765198)"/>
<path transform="matrix(1,0,0,-1.00002,102.098,-179.27292)" stroke-width=".3985" stroke-linecap="butt" stroke-miterlimit="10" stroke-linejoin="miter" fill="none" stroke="#000000" d="M24.837-210.283H29.818"/>
<use data-text="2" xlink:href="#font_1_2" transform="matrix(9.9626,0,0,-9.962799,126.935,40.339479)"/>
<use data-text="f" xlink:href="#font_2_55" transform="matrix(9.9626,0,0,-9.962799,136.429,33.50534)"/>
<use data-text="t" xlink:href="#font_2_105" transform="matrix(9.9626,0,0,-9.962799,139.47756,33.50534)"/>
<path transform="matrix(1,0,0,-1.00002,1.6599999,228.77326)" stroke-width=".3985" stroke-linecap="butt" stroke-miterlimit="10" stroke-linejoin="miter" fill="none" stroke="#000000" d="M96.37897 113.38724"/>
<use data-text="2" xlink:href="#font_1_2" transform="matrix(9.9626,0,0,-9.962799,90.427,118.84105)"/>
<use data-text="f" xlink:href="#font_2_55" transform="matrix(9.9626,0,0,-9.962799,98.726,118.84105)"/>
<use data-text="t" xlink:href="#font_2_105" transform="matrix(9.9626,0,0,-9.962799,101.77455,118.84105)"/>
<path transform="matrix(1,0,0,-1.00002,1.6599999,228.77326)" stroke-width=".3985" stroke-linecap="butt" stroke-miterlimit="10" stroke-linejoin="miter" fill="none" stroke="#000000" d="M155.90744 68.03217"/>
<use data-text="3" xlink:href="#font_1_3" transform="matrix(9.9626,0,0,-9.962799,149.95601,164.19696)"/>
<use data-text="f" xlink:href="#font_2_55" transform="matrix(9.9626,0,0,-9.962799,158.255,164.19696)"/>
<use data-text="t" xlink:href="#font_2_105" transform="matrix(9.9626,0,0,-9.962799,161.30356,164.19696)"/>
</svg>
