<svg xmlns="http://www.w3.org/2000/svg" xmlns:xlink="http://www.w3.org/1999/xlink" xmlns:inkscape="http://www.inkscape.org/namespaces/inkscape" version="1.1" width="202" height="89" viewBox="0 0 202 89">
<path transform="matrix(1,0,0,-1.00002,1.6599999,87.03942)" stroke-width=".79701" stroke-linecap="butt" stroke-miterlimit="10" stroke-linejoin="miter" fill="none" stroke="#0000ff" d="M0 0H198.42766V85.04042H0V0"/>
<path transform="matrix(1,0,0,-1.00002,1.6599999,87.03942)" d="M0 0H28.3468V85.04042H0V0" fill="#b3b3ff"/>
<path transform="matrix(1,0,0,-1.00002,1.6599999,87.03942)" stroke-width=".79701" stroke-linecap="butt" stroke-miterlimit="10" stroke-linejoin="miter" fill="none" stroke="#0000ff" d="M0 0H28.3468V85.04042H0V0"/>
<path transform="matrix(1,0,0,-1.00002,1.6599999,87.03942)" d="M56.69362 0H85.04042V85.04042H56.69362V0" fill="#b3b3ff"/>
<path transform="matrix(1,0,0,-1.00002,1.6599999,87.03942)" stroke-width=".79701" stroke-linecap="butt" stroke-miterlimit="10" stroke-linejoin="miter" fill="none" stroke="#0000ff" d="M56.69362 0H85.04042V85.04042H56.69362V0"/>
<path transform="matrix(1,0,0,-1.00002,1.6599999,87.03942)" d="M113.38724 0H141.73404V85.04042H113.38724V0" fill="#b3b3ff"/>
<path transform="matrix(1,0,0,-1.00002,1.6599999,87.03942)" stroke-width=".79701" stroke-linecap="butt" stroke-miterlimit="10" stroke-linejoin="miter" fill="none" stroke="#0000ff" d="M113.38724 0H141.73404V85.04042H113.38724V0"/>
<path transform="matrix(1,0,0,-1.00002,1.6599999,87.03942)" d="M170.08086 0H198.42766V85.04042H170.08086V0" fill="#b3b3ff"/>
<path transform="matrix(1,0,0,-1.00002,1.6599999,87.03942)" stroke-width=".79701" stroke-linecap="butt" stroke-miterlimit="10" stroke-linejoin="miter" fill="none" stroke="#0000ff" d="M170.08086 0H198.42766V85.04042H170.08086V0"/>
</svg>
