<svg xmlns="http://www.w3.org/2000/svg" xmlns:xlink="http://www.w3.org/1999/xlink" xmlns:inkscape="http://www.inkscape.org/namespaces/inkscape" version="1.1" width="60" height="61" viewBox="0 0 60 61">
<path transform="matrix(1,0,0,-1.00003,30.006,30.346432)" stroke-width=".79701" stroke-linecap="butt" stroke-miterlimit="10" stroke-linejoin="miter" fill="none" stroke="#000000" d="M28.3468 0C28.3468 15.6557 15.6557 28.3468 0 28.3468-15.6557 28.3468-28.3468 15.6557-28.3468 0-28.3468-15.6557-15.6557-28.3468 0-28.3468 15.6557-28.3468 28.3468-15.6557 28.3468 0ZM0 0"/>
<path transform="matrix(1,0,0,-1.00003,30.006,30.346432)" stroke-width=".79701" stroke-linecap="butt" stroke-miterlimit="10" stroke-linejoin="miter" fill="none" stroke="#000000" d="M0 0V-28.3468C10.12613-28.3468 19.48625-22.94266 24.5491-14.17339L0 0"/>
<path transform="matrix(1,0,0,-1.00003,30.006,30.346432)" stroke-width=".79701" stroke-linecap="butt" stroke-miterlimit="10" stroke-linejoin="miter" fill="none" stroke="#000000" d="M0-28.3468C-10.12613-28.3468-19.48625-22.94266-24.5491-14.17339L0 0"/>
<path transform="matrix(1,0,0,-1.00003,30.006,30.346432)" stroke-width=".79701" stroke-linecap="butt" stroke-miterlimit="10" stroke-linejoin="miter" fill="none" stroke="#000000" d="M0 0V28.3468C10.12613 28.3468 19.48625 22.94266 24.5491 14.17339L0 0"/>
<path transform="matrix(1,0,0,-1.00003,30.006,30.346432)" stroke-width=".79701" stroke-linecap="butt" stroke-miterlimit="10" stroke-linejoin="miter" fill="none" stroke="#000000" d="M0 28.3468C-10.12613 28.3468-19.48625 22.94266-24.5491 14.17339L0 0"/>
</svg>
